<?xml version="1.0" standalone="no"?>
<!DOCTYPE svg PUBLIC "-//W3C//DTD SVG 20010904//EN"
 "http://www.w3.org/TR/2001/REC-SVG-20010904/DTD/svg10.dtd">
<svg version="1.0" xmlns="http://www.w3.org/2000/svg"
 width="1600.000000pt" height="1600.000000pt" viewBox="0 0 1600.000000 1600.000000"
 preserveAspectRatio="xMidYMid meet">
<metadata>
Created by potrace 1.14, written by Peter Selinger 2001-2017
</metadata>
<g transform="translate(0.000000,1600.000000) scale(0.100000,-0.100000)"
fill="#000000" stroke="none">
<path d="M2841 15989 c-699 -36 -1339 -307 -1870 -790 -476 -433 -809 -1042
-920 -1682 -48 -275 -46 -28 -46 -5507 0 -5458 -2 -5254 45 -5523 112 -645
444 -1252 921 -1686 386 -351 804 -578 1304 -706 181 -46 372 -74 598 -85 260
-13 9994 -13 10254 0 574 29 1069 191 1533 501 418 280 740 634 981 1081 184
341 291 693 341 1123 19 165 19 10383 0 10565 -51 480 -192 899 -437 1296
-359 582 -924 1033 -1572 1255 -278 95 -525 142 -843 159 -234 12 -10053 11
-10289 -1z m839 -6344 l0 -1105 1265 0 1265 0 0 1105 0 1105 655 0 655 0 0
-2800 0 -2800 -655 0 -655 0 0 1145 0 1145 -1265 0 -1265 0 0 -1145 0 -1145
-655 0 -655 0 0 2800 0 2800 655 0 655 0 0 -1105z m8460 1077 c634 -88 1044
-294 1326 -667 82 -108 160 -278 199 -435 36 -144 45 -392 21 -559 -30 -203
-99 -384 -205 -538 -114 -167 -265 -311 -432 -410 l-78 -47 75 -28 c411 -149
737 -473 859 -852 57 -178 69 -264 69 -501 0 -191 -3 -234 -22 -322 -57 -264
-171 -473 -357 -658 -257 -255 -605 -415 -1090 -500 -311 -54 -335 -55 -2072
-55 l-1603 0 0 2800 0 2801 1573 -3 1572 -3 165 -23z m887 -6938 c-3 -3 -12
-4 -19 -1 -8 3 -5 6 6 6 11 1 17 -2 13 -5z m-397 -158 c0 -2 -8 -10 -17 -17
-16 -13 -17 -12 -4 4 13 16 21 21 21 13z m1211 -53 c13 -16 12 -17 -3 -4 -10
7 -18 15 -18 17 0 8 8 3 21 -13z m-1311 -26 c0 -2 -19 -21 -42 -42 l-43 -40
40 43 c36 39 45 47 45 39z m1385 -37 c21 -22 37 -40 34 -40 -3 0 -23 18 -44
40 -21 22 -37 40 -34 40 3 0 23 -18 44 -40z m-1475 -64 c0 -2 -8 -10 -17 -17
-16 -13 -17 -12 -4 4 13 16 21 21 21 13z m1541 -13 c13 -16 12 -17 -3 -4 -10
7 -18 15 -18 17 0 8 8 3 21 -13z m-1774 -515 c-3 -8 -6 -5 -6 6 -1 11 2 17 5
13 3 -3 4 -12 1 -19z m1990 0 c-3 -8 -6 -5 -6 6 -1 11 2 17 5 13 3 -3 4 -12 1
-19z m-1990 -250 c-3 -8 -6 -5 -6 6 -1 11 2 17 5 13 3 -3 4 -12 1 -19z m1990
0 c-3 -8 -6 -5 -6 6 -1 11 2 17 5 13 3 -3 4 -12 1 -19z m-1806 -455 c13 -16
12 -17 -3 -4 -10 7 -18 15 -18 17 0 8 8 3 21 -13z m30 -40 c13 -16 12 -17 -3
-4 -10 7 -18 15 -18 17 0 8 8 3 21 -13z m1569 3 c0 -2 -8 -10 -17 -17 -16 -13
-17 -12 -4 4 13 16 21 21 21 13z m-1485 -96 c21 -22 37 -40 34 -40 -3 0 -23
18 -44 40 -21 22 -37 40 -34 40 3 0 23 -18 44 -40z m1435 37 c0 -2 -15 -16
-32 -33 l-33 -29 29 33 c28 30 36 37 36 29z m-1359 -104 c13 -16 12 -17 -3 -4
-10 7 -18 15 -18 17 0 8 8 3 21 -13z m40 -30 c13 -16 12 -17 -3 -4 -10 7 -18
15 -18 17 0 8 8 3 21 -13z m776 -169 c-3 -3 -12 -4 -19 -1 -8 3 -5 6 6 6 11 1
17 -2 13 -5z m-314 -11 c-7 -2 -19 -2 -25 0 -7 3 -2 5 12 5 14 0 19 -2 13 -5z"/>
<path d="M10130 9114 l0 -655 763 3 c839 4 847 5 1042 69 124 42 208 91 286
168 113 112 159 233 159 416 0 199 -58 336 -190 449 -69 60 -184 119 -296 151
-175 51 -254 55 -1040 55 l-724 0 0 -656z"/>
<path d="M10130 6821 l0 -692 898 4 c768 3 909 6 977 20 133 26 225 56 325
104 219 105 330 295 330 560 -1 266 -114 452 -342 562 -111 54 -172 72 -343
103 -103 19 -168 20 -977 25 l-868 5 0 -691z"/>
</g>
</svg>
