<?xml version="1.0" standalone="no"?>
<!DOCTYPE svg PUBLIC "-//W3C//DTD SVG 20010904//EN"
 "http://www.w3.org/TR/2001/REC-SVG-20010904/DTD/svg10.dtd">
<svg version="1.0" xmlns="http://www.w3.org/2000/svg"
 width="1600.000000pt" height="1600.000000pt" viewBox="0 0 1600.000000 1600.000000"
 preserveAspectRatio="xMidYMid meet">
<metadata>
Created by potrace 1.14, written by Peter Selinger 2001-2017
</metadata>
<g transform="translate(0.000000,1600.000000) scale(0.100000,-0.100000)"
fill="#000000" stroke="none">
<path d="M2795 15993 c-33 -2 -114 -10 -180 -19 -702 -92 -1321 -412 -1811
-934 -434 -464 -703 -1044 -786 -1700 -19 -156 -19 -10524 0 -10680 107 -841
520 -1558 1187 -2060 417 -313 866 -496 1415 -577 120 -17 341 -18 5375 -18
4983 0 5257 1 5378 18 680 95 1253 373 1726 840 499 491 793 1091 883 1797 20
157 19 10525 0 10680 -109 845 -520 1558 -1187 2060 -408 306 -829 481 -1380
573 l-130 21 -5215 1 c-2868 1 -5242 0 -5275 -2z m1385 -6533 l0 -1120 1130 0
1130 0 0 1120 0 1120 605 0 605 0 0 -2855 0 -2855 -605 0 -605 0 0 1230 0
1230 -1130 0 -1130 0 0 -1230 0 -1230 -605 0 -605 0 0 2855 0 2855 605 0 605
0 0 -1120z m7065 1110 c438 -27 764 -83 1039 -177 397 -135 619 -309 761 -598
104 -210 141 -409 132 -710 -8 -298 -62 -506 -185 -710 -140 -233 -331 -378
-595 -452 -106 -30 -123 -49 -57 -67 199 -53 363 -121 496 -208 235 -152 398
-411 458 -725 37 -197 44 -477 15 -668 -76 -507 -362 -892 -836 -1129 -236
-118 -461 -182 -814 -233 -100 -14 -269 -17 -1341 -20 l-1228 -4 0 2856 0
2855 998 0 c550 0 1069 -4 1157 -10z"/>
<path d="M10307 9583 c-4 -3 -7 -289 -7 -636 l0 -629 483 5 c490 4 551 9 705
48 294 74 453 285 452 602 -1 387 -235 566 -795 607 -155 11 -828 14 -838 3z"/>
<path d="M10308 7354 c-5 -4 -8 -340 -8 -746 l0 -740 518 4 c439 4 531 7 612
22 299 56 463 169 565 391 53 115 69 192 69 350 1 160 -12 225 -71 345 -90
185 -294 307 -594 355 -83 14 -204 18 -594 22 -269 3 -493 2 -497 -3z"/>
</g>
</svg>
